<svg width="19" height="18" viewBox="0 0 19 18" fill="none" xmlns="http://www.w3.org/2000/svg">
<g clip-path="url(#clip0_75_249)">
<path d="M9.5 0C4.55354 0 0.5 4.0887 0.5 9.03516C0.5 13.9529 4.5166 18 9.5 18C14.4772 18 18.5 13.959 18.5 9.03516C18.5 4.0887 14.4465 0 9.5 0ZM11.082 16.7871C10.5758 16.8926 10.0379 16.9453 9.5 16.9453C8.96208 16.9453 8.42416 16.8926 7.91797 16.7871V14.3192C7.91797 13.7285 8.07617 13.5176 8.28711 13.2328C8.3945 13.11 8.45932 12.9998 8.94093 12.2731L8.12891 12.1465C6.04054 11.8407 5.21794 10.7542 4.89096 9.91049C4.46909 8.78206 4.6906 7.36867 5.45003 6.47232C5.56607 6.33513 5.66096 6.10304 5.57664 5.86052C5.4183 5.37534 5.43945 4.60547 5.54492 4.31007C6.10413 4.39 6.67912 4.79059 7.15868 5.08008C7.37964 5.20903 7.49554 5.17497 7.60156 5.18555C7.98691 5.10535 8.588 4.9113 9.51057 4.9113C10.0801 4.9113 10.6813 4.99562 11.272 5.1644C11.3776 5.16193 11.5473 5.25174 11.8415 5.08008C12.3427 4.77466 12.8982 4.3878 13.4551 4.31007C13.5605 4.60547 13.5817 5.37534 13.4235 5.86052C13.339 6.10304 13.4339 6.33513 13.5501 6.47232C14.3094 7.3688 14.5309 8.78206 14.109 9.91049C13.7821 10.7542 12.9595 11.8407 10.8711 12.1465L10.0591 12.2731C10.5569 13.0243 10.6093 13.1144 10.713 13.2328C10.9238 13.5176 11.082 13.7285 11.082 14.3192V16.7871ZM12.1367 16.4813V14.3192C12.1367 13.7179 12.0101 13.3172 11.8413 13.0218C13.4445 12.5895 14.5836 11.6402 15.0898 10.2796C15.6278 8.84537 15.3852 7.13672 14.4886 5.95541C14.647 5.24886 14.647 4.12029 14.2672 3.59294C14.0985 3.36099 13.8664 3.23438 13.5711 3.23438C13.5605 3.23438 13.5605 3.23438 13.5605 3.23438C12.7428 3.27859 12.0991 3.69044 11.409 4.10971C10.7762 3.94093 10.1328 3.85661 9.48943 3.85661C8.8356 3.85661 8.18164 3.95151 7.6017 4.10971C6.87523 3.67163 6.23775 3.2775 5.39729 3.23438C5.13362 3.23438 4.90154 3.36099 4.73276 3.59294C4.35318 4.12029 4.35318 5.24886 4.51138 5.95541C3.61476 7.13672 3.37224 8.8558 3.91016 10.2796C4.41635 11.6402 5.5555 12.5895 7.15868 13.0218C7.0278 13.2507 6.92426 13.5461 6.88347 13.9459C6.55965 14.0576 6.27881 14.0939 6.01761 14.0172C5.74213 13.9357 5.52748 13.7519 5.34099 13.4382C4.92213 12.7345 4.20871 12.1601 3.39641 12.2348L3.48911 13.2854C3.86525 13.2509 4.23961 13.6489 4.43407 13.9769C4.75487 14.5172 5.18704 14.8715 5.71892 15.0286C6.11374 15.1449 6.47464 15.1422 6.86328 15.0592V16.4813C3.79411 15.4054 1.55469 12.4735 1.55469 9.03516C1.55469 4.66878 5.13362 1.05469 9.5 1.05469C13.8664 1.05469 17.4453 4.66878 17.4453 9.03516C17.4453 12.4735 15.2059 15.4054 12.1367 16.4813Z" fill="#25B81D"/>
</g>
<defs>
<clipPath id="clip0_75_249">
<rect width="18" height="18" fill="white" transform="translate(0.5)"/>
</clipPath>
</defs>
</svg>
