<svg width="51" height="36" viewBox="0 0 51 36" fill="none" xmlns="http://www.w3.org/2000/svg">
<path d="M31.4884 24.8442C33.0166 27.3394 35.0049 29.1736 38.5214 29.1736C41.4754 29.1736 43.3625 27.6971 43.3625 25.6571C43.3625 23.2124 41.4237 22.3466 38.1722 20.9243L36.3897 20.1596C31.2451 17.9678 27.8273 15.222 27.8273 9.41741C27.8273 4.07041 31.9014 0 38.2683 0C42.8012 0 46.06 1.57755 48.4083 5.70827L42.8566 9.27293C41.6343 7.08117 40.3156 6.21772 38.2683 6.21772C36.1801 6.21772 34.8566 7.54246 34.8566 9.27293C34.8566 11.4118 36.1813 12.2776 39.2401 13.6024L41.0224 14.3658C47.08 16.9634 50.5 19.6116 50.5 25.5655C50.5 31.9843 45.4577 35.5008 38.686 35.5008C32.065 35.5008 27.7874 32.3456 25.6943 28.2101L31.4884 24.8442ZM6.3034 25.462C7.42336 27.4491 8.44226 29.129 10.8917 29.129C13.234 29.129 14.7117 28.2125 14.7117 24.6492V0.407056H21.841V24.7454C21.841 32.1275 17.5129 35.4875 11.1952 35.4875C5.48692 35.4875 2.18127 32.5333 0.5 28.9754L6.3034 25.462Z" fill="#3D85F2"/>
</svg>
