<svg width="15" height="14" viewBox="0 0 15 14" fill="none" xmlns="http://www.w3.org/2000/svg">
<path d="M3.89654 14.0001C3.00218 14.0002 2.15759 13.6458 1.50596 12.9942C0.823656 12.3118 0.467258 11.4178 0.502367 10.4768C0.538652 9.50492 0.97771 8.57132 1.7721 7.77693L3.20239 6.34081C3.41551 6.12679 3.76176 6.12608 3.97578 6.33923C4.18977 6.55234 4.19051 6.89862 3.97737 7.11262L2.54631 8.54955C1.38664 9.70923 1.27721 11.2186 2.27941 12.2208C3.28164 13.2231 4.79098 13.1136 5.94981 11.9547L7.91546 9.98901C8.51125 9.39324 8.83982 8.71296 8.8656 8.02177C8.88925 7.38821 8.64633 6.78334 8.1816 6.31861C8.02588 6.16291 7.85358 6.03079 7.66948 5.92593C7.40703 5.77644 7.31546 5.44249 7.46495 5.18007C7.61446 4.91763 7.94841 4.82608 8.2108 4.97554C8.47981 5.12878 8.73019 5.32046 8.95501 5.54525C9.63732 6.22755 9.99372 7.12156 9.95861 8.06259C9.92233 9.03447 9.48327 9.96809 8.68888 10.7625L6.72322 12.7281C5.92881 13.5225 4.99524 13.9615 4.02336 13.9978C3.98103 13.9993 3.93868 14.0001 3.89654 14.0001ZM7.53511 8.82026C7.6846 8.55781 7.593 8.22386 7.33058 8.0744C7.14647 7.96954 6.97415 7.83741 6.81846 7.68175C5.81626 6.67952 5.92569 5.17017 7.08457 4.01129L9.05023 2.04566C10.2091 0.886811 11.7184 0.777355 12.7206 1.77956C13.7228 2.78176 13.6134 4.2911 12.4537 5.45078L11.0227 6.88771C10.8095 7.10171 10.8102 7.44799 11.0242 7.6611C11.2382 7.87425 11.5845 7.87348 11.7976 7.65952L13.2279 6.22337C14.0223 5.42898 14.4614 4.49539 14.4977 3.52354C14.5328 2.5825 14.1764 1.68847 13.4941 1.00617C12.8117 0.323832 11.9173 -0.0325109 10.9767 0.0025437C10.0048 0.0388288 9.07123 0.477886 8.27686 1.27228L6.31118 3.2379C5.51679 4.03229 5.07776 4.96589 5.04145 5.93774C5.00634 6.87877 5.36274 7.7728 6.04504 8.45514C6.26984 8.6799 6.52022 8.87155 6.78926 9.02481C6.87468 9.07346 6.96765 9.09659 7.05941 9.09659C7.24953 9.09656 7.43427 8.99725 7.53511 8.82026Z" fill="#25B81D"/>
</svg>
