<svg width="45" height="50" viewBox="0 0 45 50" fill="none" xmlns="http://www.w3.org/2000/svg">
<path d="M39.554 25C40.1905 24.3425 40.7824 23.6834 41.3229 23.0265C44.7426 18.8699 45.799 15.1488 44.2978 12.5488C42.7969 9.94873 39.0462 9.00322 33.7366 9.88643C32.9005 10.0255 32.037 10.2078 31.1526 10.4291C30.8991 9.53379 30.6214 8.67705 30.3191 7.8666C28.4277 2.79375 25.7332 0 22.7318 0C19.7304 0 17.0359 2.79375 15.1445 7.8666C14.8424 8.67705 14.5646 9.53379 14.3111 10.4291C13.4268 10.2077 12.5634 10.0255 11.7272 9.88643C6.41785 9.00342 2.66697 9.94873 1.1659 12.5488C-0.335274 15.1489 0.721269 18.8699 4.1409 23.0265C4.68133 23.6834 5.27332 24.3425 5.90984 25C5.27332 25.6575 4.68143 26.3166 4.1409 26.9735C0.721171 31.1301 -0.335371 34.8511 1.1658 37.4512C3.06082 40.7334 7.9993 40.7337 11.7271 40.1136C12.5633 39.9745 13.4267 39.7922 14.311 39.5709C14.5645 40.4662 14.8423 41.323 15.1444 42.1334C17.0359 47.2063 19.7304 50 22.7318 50C25.7332 50 28.4277 47.2063 30.3191 42.1334C30.6213 41.323 30.8991 40.4662 31.1526 39.5709C32.037 39.7923 32.9005 39.9745 33.7366 40.1136C37.4642 40.7336 42.403 40.7334 44.2978 37.4512C45.799 34.8512 44.7426 31.1301 41.3229 26.9735C40.7825 26.3166 40.1905 25.6575 39.554 25ZM11.2464 37.2235C7.3449 37.8726 4.52488 37.41 3.70291 35.9863C2.88094 34.5626 3.89041 31.8892 6.40311 28.8349C6.89725 28.2343 7.43914 27.6309 8.02254 27.028C9.44832 28.3052 11.0317 29.5613 12.7385 30.7686C12.9298 32.8495 13.2246 34.8497 13.6159 36.7258C12.8039 36.929 12.0121 37.0962 11.2464 37.2235ZM12.5077 26.9548C11.6785 26.3112 10.89 25.6583 10.1474 25C10.89 24.3418 11.6785 23.6888 12.5077 23.0452C12.4883 23.6925 12.4779 24.3442 12.4779 25C12.4779 25.6558 12.4883 26.3075 12.5077 26.9548ZM12.7386 19.2314C11.0318 20.4387 9.44842 21.6948 8.02264 22.972C7.43924 22.3691 6.89725 21.7657 6.4032 21.1651C3.89051 18.1108 2.88103 15.4374 3.70301 14.0137C4.52498 12.59 7.3449 12.1274 11.2465 12.7765C12.0121 12.9038 12.804 13.071 13.6161 13.2742C13.2247 15.1503 12.9299 17.1506 12.7386 19.2314ZM29.5389 17.1245C28.9876 16.7836 28.4275 16.4482 27.8588 16.1198C27.2908 15.7919 26.7211 15.475 26.151 15.1684C27.1245 14.7714 28.0858 14.4145 29.0287 14.1001C29.2264 15.0738 29.3969 16.0843 29.5389 17.1245ZM17.8895 8.89014C19.2811 5.15791 21.0913 2.92969 22.7318 2.92969C24.3723 2.92969 26.1825 5.15791 27.5741 8.89014C27.8513 9.63359 28.1063 10.4207 28.3395 11.2443C26.5174 11.8412 24.6343 12.5855 22.7318 13.4617C20.8294 12.5855 18.9462 11.8411 17.1241 11.2443C17.3573 10.4207 17.6124 9.6335 17.8895 8.89014ZM16.435 14.1001C17.3779 14.4145 18.3392 14.7714 19.3128 15.1684C18.7426 15.475 18.1729 15.7919 17.6049 16.1198C17.0361 16.4482 16.4761 16.7835 15.9247 17.1245C16.0668 16.0843 16.2372 15.0738 16.435 14.1001ZM15.9247 32.8755C16.4761 33.2164 17.0361 33.5518 17.6049 33.8802C18.1728 34.2081 18.7426 34.525 19.3128 34.8316C18.3392 35.2286 17.3779 35.5855 16.435 35.8999C16.2372 34.9262 16.0668 33.9157 15.9247 32.8755ZM27.5741 41.1099C26.1825 44.8421 24.3723 47.0703 22.7318 47.0703C21.0913 47.0703 19.2811 44.8421 17.8895 41.1099C17.6124 40.3664 17.3573 39.5793 17.1241 38.7557C18.9463 38.1589 20.8294 37.4145 22.7318 36.5383C24.6343 37.4145 26.5175 38.1588 28.3395 38.7557C28.1063 39.5793 27.8513 40.3665 27.5741 41.1099ZM29.0286 35.8999C28.0857 35.5855 27.1244 35.2287 26.1509 34.8316C26.7211 34.525 27.2907 34.2081 27.8587 33.8802C28.4274 33.5519 28.9875 33.2165 29.5389 32.8755C29.3969 33.9157 29.2264 34.9262 29.0286 35.8999ZM29.9166 29.1477C28.7904 29.9043 27.6133 30.6391 26.3939 31.343C25.1748 32.0469 23.9501 32.6988 22.7318 33.2958C21.5136 32.6989 20.2888 32.0469 19.0697 31.343C17.8504 30.6391 16.6732 29.9043 15.5471 29.1477C15.4552 27.7936 15.4076 26.4069 15.4076 25C15.4076 23.5931 15.4552 22.2064 15.5471 20.8523C16.6732 20.0957 17.8504 19.3609 19.0697 18.657C20.2888 17.9531 21.5136 17.3012 22.7318 16.7042C23.9501 17.3011 25.1748 17.9531 26.3939 18.657C27.6133 19.3609 28.7904 20.0957 29.9166 20.8523C30.0085 22.2064 30.056 23.5931 30.056 25C30.056 26.4069 30.0085 27.7936 29.9166 29.1477ZM34.2172 12.7765C38.1186 12.1274 40.9387 12.59 41.7606 14.0137C42.5826 15.4374 41.5732 18.1108 39.0604 21.1651C38.5663 21.7657 38.0244 22.3691 37.441 22.972C36.0152 21.6948 34.4318 20.4387 32.7251 19.2314C32.5338 17.1505 32.2389 15.1503 31.8476 13.2742C32.6598 13.071 33.4515 12.9038 34.2172 12.7765ZM32.9559 23.0452C33.7851 23.6888 34.5736 24.3417 35.3162 25C34.5736 25.6582 33.7851 26.3112 32.9559 26.9548C32.9754 26.3075 32.9857 25.6558 32.9857 25C32.9857 24.3442 32.9754 23.6925 32.9559 23.0452ZM41.7606 35.9863C40.9387 37.4101 38.1186 37.8726 34.2172 37.2235C33.4515 37.0962 32.6598 36.929 31.8476 36.7258C32.2389 34.8497 32.5338 32.8495 32.7251 30.7686C34.4318 29.5613 36.0152 28.3051 37.441 27.028C38.0244 27.631 38.5663 28.2343 39.0604 28.8349C41.5733 31.8892 42.5826 34.5626 41.7606 35.9863ZM22.7318 20.6055C20.3087 20.6055 18.3373 22.5769 18.3373 25C18.3373 27.4231 20.3087 29.3945 22.7318 29.3945C25.155 29.3945 27.1264 27.4231 27.1264 25C27.1264 22.5769 25.1551 20.6055 22.7318 20.6055ZM22.7318 26.4648C21.9241 26.4648 21.267 25.8077 21.267 25C21.267 24.1923 21.9241 23.5352 22.7318 23.5352C23.5395 23.5352 24.1967 24.1923 24.1967 25C24.1967 25.8077 23.5395 26.4648 22.7318 26.4648Z" fill="url(#paint0_linear_30_2299)"/>
<defs>
<linearGradient id="paint0_linear_30_2299" x1="22.7318" y1="50" x2="22.7318" y2="0" gradientUnits="userSpaceOnUse">
<stop stop-color="#5558FF"/>
<stop offset="1" stop-color="#00C0FF"/>
</linearGradient>
</defs>
</svg>
