<svg width="51" height="50" viewBox="0 0 51 50" fill="none" xmlns="http://www.w3.org/2000/svg">
<path d="M7.76154 39.3457C7.16106 39.8588 6.32293 39.9904 5.59406 39.686L1.78792 38.0892C1.01173 37.7654 0.504516 37.0087 0.5 36.1677V13.8333C0.504516 12.9923 1.01173 12.2357 1.78792 11.9119L5.59406 10.3413C6.32293 10.0369 7.16106 10.1685 7.76154 10.6816L8.61488 11.3884C8.09599 11.0154 7.373 11.1337 7.00007 11.6525C6.85803 11.8501 6.78185 12.0874 6.78254 12.3308V37.6703C6.78097 38.3094 7.29761 38.8287 7.93666 38.8302C8.18002 38.8308 8.41738 38.7548 8.61498 38.6127L7.76154 39.3457Z" fill="#5E1B8D"/>
<path d="M1.78792 38.0892C1.01173 37.7654 0.504516 37.0087 0.5 36.1677V35.995C0.507166 36.6629 1.05434 37.1985 1.72225 37.1914C2.05336 37.1878 2.36847 37.0488 2.59425 36.8065L35.054 0.917453C35.996 -0.0198237 37.4257 -0.262978 38.6245 0.310108L48.9802 5.29423C50.0689 5.81764 50.7608 6.91885 50.7603 8.12667V8.24712C50.7594 7.15121 49.8703 6.2636 48.7744 6.26458C48.3169 6.26498 47.8736 6.42341 47.5195 6.7131L8.61489 38.6127L7.76154 39.3457C7.16107 39.8588 6.32294 39.9905 5.59406 39.686L1.78792 38.0892Z" fill="#7C30B3"/>
<path d="M1.78792 11.9119C1.01173 12.2356 0.504516 12.9923 0.5 13.8333V14.006C0.507166 13.3381 1.05434 12.8025 1.72225 12.8096C2.05336 12.8131 2.36847 12.9522 2.59425 13.1945L35.054 49.0836C35.996 50.0209 37.4257 50.2641 38.6245 49.691L48.9802 44.7069C50.0688 44.1834 50.7608 43.0823 50.7602 41.8745V41.7541C50.7593 42.85 49.8702 43.7376 48.7743 43.7366C48.3168 43.7362 47.8735 43.5778 47.5194 43.2881L8.61479 11.3885L7.76144 10.6555C7.15567 10.1512 6.31803 10.0298 5.59396 10.3414L1.78792 11.9119Z" fill="#954BCB"/>
<path d="M38.6233 49.6909C37.4244 50.2641 35.9946 50.0208 35.0527 49.0835C35.775 49.8006 36.9418 49.7964 37.6589 49.0741C38.0006 48.73 38.1928 48.2649 38.194 47.7799V2.23149C38.1974 1.21371 37.3752 0.385793 36.3574 0.382357C35.8688 0.380688 35.3996 0.573189 35.0527 0.917453C35.9947 -0.0198237 37.4245 -0.262978 38.6233 0.310108L48.979 5.28902C50.0675 5.81244 50.7596 6.91355 50.759 8.12137V41.8795C50.7595 43.0873 50.0675 44.1886 48.979 44.7119L38.6233 49.6909Z" fill="#C37AF4"/>
<path opacity="0.25" fill-rule="evenodd" clip-rule="evenodd" d="M36.567 49.9213C37.2592 50.0792 37.9844 49.998 38.6245 49.6909L48.9802 44.712C50.0688 44.1886 50.7608 43.0874 50.7602 41.8796V8.12146C50.7607 6.91364 50.0688 5.81243 48.9802 5.28911L38.6245 0.310101C37.8918 -0.0421141 37.051 -0.0964974 36.2791 0.15824C35.8174 0.312948 35.3979 0.57279 35.054 0.917348L18.3633 19.3776L8.61488 11.3883L7.76154 10.6553C7.24058 10.2099 6.53468 10.0476 5.87157 10.2207C5.77586 10.2418 5.6828 10.2734 5.59406 10.315L1.78792 11.9119C1.0616 12.2118 0.564298 12.8931 0.5 13.6762V13.8333V36.1677V36.3248C0.564298 37.1079 1.0616 37.7892 1.78792 38.0891L5.59406 39.6597C5.6828 39.7012 5.77586 39.7329 5.87157 39.754C6.53468 39.9271 7.24068 39.7649 7.76154 39.3194L8.61488 38.6126L18.3633 30.6233L35.054 49.0836C35.47 49.4989 35.9942 49.7891 36.567 49.9213ZM38.1953 14.3621L25.2166 25.0005L38.1953 35.639V14.3621ZM6.78254 17.8123L13.2798 25.0006L6.78254 32.1888V17.8123Z" fill="url(#paint0_linear_30_2307)"/>
<defs>
<linearGradient id="paint0_linear_30_2307" x1="25.6302" y1="-1.45528e-06" x2="25.6302" y2="50" gradientUnits="userSpaceOnUse">
<stop stop-color="white"/>
<stop offset="1" stop-color="white" stop-opacity="0"/>
</linearGradient>
</defs>
</svg>
